<mxfile host="app.diagrams.net" modified="2021-11-03T17:46:02.736Z" agent="5.0 (Windows NT 10.0; Win64; x64) AppleWebKit/537.36 (KHTML, like Gecko) Chrome/94.0.4606.81 Safari/537.36 OPR/80.0.4170.63" etag="LmlieFfWREZu3DUUyDQE" version="15.4.3" type="github">
  <diagram id="onstl7U0DTR3oOB68qqC" name="Page-1">
    <mxGraphModel dx="1467" dy="910" grid="1" gridSize="10" guides="1" tooltips="1" connect="1" arrows="1" fold="1" page="1" pageScale="1" pageWidth="827" pageHeight="1169" math="0" shadow="0">
      <root>
        <mxCell id="0" />
        <mxCell id="1" parent="0" />
        <mxCell id="s3MzPOfMa5aDgj7yRu4I-1" value="Береснев Денис, ИВБО-02-19" style="text;html=1;strokeColor=none;fillColor=none;align=center;verticalAlign=middle;whiteSpace=wrap;rounded=0;fontSize=24;" vertex="1" parent="1">
          <mxGeometry x="500" y="10" width="306" height="70" as="geometry" />
        </mxCell>
        <mxCell id="s3MzPOfMa5aDgj7yRu4I-2" value="&lt;font style=&quot;font-size: 18px&quot;&gt;Синтезировать мультиплексор 8х1, взяв за основу мультиплексор 2х1. Базис И-ИЛИ-НЕ&lt;/font&gt;" style="text;html=1;strokeColor=none;fillColor=none;align=center;verticalAlign=middle;whiteSpace=wrap;rounded=0;" vertex="1" parent="1">
          <mxGeometry x="99" y="120" width="610" height="30" as="geometry" />
        </mxCell>
        <mxCell id="s3MzPOfMa5aDgj7yRu4I-3" value="" style="rounded=0;whiteSpace=wrap;html=1;" vertex="1" parent="1">
          <mxGeometry x="120" y="240" width="40" height="80" as="geometry" />
        </mxCell>
        <mxCell id="s3MzPOfMa5aDgj7yRu4I-4" value="" style="rounded=0;whiteSpace=wrap;html=1;" vertex="1" parent="1">
          <mxGeometry x="120" y="320" width="40" height="40" as="geometry" />
        </mxCell>
        <mxCell id="s3MzPOfMa5aDgj7yRu4I-5" value="" style="rounded=0;whiteSpace=wrap;html=1;" vertex="1" parent="1">
          <mxGeometry x="160" y="240" width="40" height="120" as="geometry" />
        </mxCell>
        <mxCell id="s3MzPOfMa5aDgj7yRu4I-6" value="" style="rounded=0;whiteSpace=wrap;html=1;" vertex="1" parent="1">
          <mxGeometry x="200" y="240" width="40" height="120" as="geometry" />
        </mxCell>
        <mxCell id="s3MzPOfMa5aDgj7yRu4I-19" value="MS" style="text;html=1;strokeColor=none;fillColor=none;align=center;verticalAlign=middle;whiteSpace=wrap;rounded=0;" vertex="1" parent="1">
          <mxGeometry x="150" y="265" width="60" height="30" as="geometry" />
        </mxCell>
        <mxCell id="s3MzPOfMa5aDgj7yRu4I-20" value="2х1" style="text;html=1;strokeColor=none;fillColor=none;align=center;verticalAlign=middle;whiteSpace=wrap;rounded=0;" vertex="1" parent="1">
          <mxGeometry x="150" y="310" width="60" height="30" as="geometry" />
        </mxCell>
        <mxCell id="s3MzPOfMa5aDgj7yRu4I-21" value="0" style="text;html=1;strokeColor=none;fillColor=none;align=center;verticalAlign=middle;whiteSpace=wrap;rounded=0;" vertex="1" parent="1">
          <mxGeometry x="110" y="250" width="60" height="30" as="geometry" />
        </mxCell>
        <mxCell id="s3MzPOfMa5aDgj7yRu4I-22" value="1&lt;span style=&quot;color: rgba(0 , 0 , 0 , 0) ; font-family: monospace ; font-size: 0px&quot;&gt;%3CmxGraphModel%3E%3Croot%3E%3CmxCell%20id%3D%220%22%2F%3E%3CmxCell%20id%3D%221%22%20parent%3D%220%22%2F%3E%3CmxCell%20id%3D%222%22%20value%3D%220%22%20style%3D%22text%3Bhtml%3D1%3BstrokeColor%3Dnone%3BfillColor%3Dnone%3Balign%3Dcenter%3BverticalAlign%3Dmiddle%3BwhiteSpace%3Dwrap%3Brounded%3D0%3B%22%20vertex%3D%221%22%20parent%3D%221%22%3E%3CmxGeometry%20x%3D%22110%22%20y%3D%22290%22%20width%3D%2260%22%20height%3D%2230%22%20as%3D%22geometry%22%2F%3E%3C%2FmxCell%3E%3C%2Froot%3E%3C%2FmxGraphModel%3E&lt;/span&gt;" style="text;html=1;strokeColor=none;fillColor=none;align=center;verticalAlign=middle;whiteSpace=wrap;rounded=0;" vertex="1" parent="1">
          <mxGeometry x="110" y="285" width="60" height="30" as="geometry" />
        </mxCell>
        <mxCell id="s3MzPOfMa5aDgj7yRu4I-23" value="a&lt;sub&gt;0&lt;/sub&gt;" style="text;html=1;strokeColor=none;fillColor=none;align=center;verticalAlign=middle;whiteSpace=wrap;rounded=0;" vertex="1" parent="1">
          <mxGeometry x="125" y="325" width="30" height="30" as="geometry" />
        </mxCell>
        <mxCell id="s3MzPOfMa5aDgj7yRu4I-24" value="F&lt;sub&gt;0&lt;/sub&gt;" style="text;html=1;strokeColor=none;fillColor=none;align=center;verticalAlign=middle;whiteSpace=wrap;rounded=0;" vertex="1" parent="1">
          <mxGeometry x="205" y="265" width="30" height="30" as="geometry" />
        </mxCell>
        <mxCell id="s3MzPOfMa5aDgj7yRu4I-25" value="" style="rounded=0;whiteSpace=wrap;html=1;" vertex="1" parent="1">
          <mxGeometry x="120" y="440" width="40" height="80" as="geometry" />
        </mxCell>
        <mxCell id="s3MzPOfMa5aDgj7yRu4I-26" value="" style="rounded=0;whiteSpace=wrap;html=1;" vertex="1" parent="1">
          <mxGeometry x="120" y="520" width="40" height="40" as="geometry" />
        </mxCell>
        <mxCell id="s3MzPOfMa5aDgj7yRu4I-27" value="" style="rounded=0;whiteSpace=wrap;html=1;" vertex="1" parent="1">
          <mxGeometry x="160" y="440" width="40" height="120" as="geometry" />
        </mxCell>
        <mxCell id="s3MzPOfMa5aDgj7yRu4I-28" value="" style="rounded=0;whiteSpace=wrap;html=1;" vertex="1" parent="1">
          <mxGeometry x="200" y="440" width="40" height="120" as="geometry" />
        </mxCell>
        <mxCell id="s3MzPOfMa5aDgj7yRu4I-29" value="MS" style="text;html=1;strokeColor=none;fillColor=none;align=center;verticalAlign=middle;whiteSpace=wrap;rounded=0;" vertex="1" parent="1">
          <mxGeometry x="150" y="465" width="60" height="30" as="geometry" />
        </mxCell>
        <mxCell id="s3MzPOfMa5aDgj7yRu4I-30" value="2х1" style="text;html=1;strokeColor=none;fillColor=none;align=center;verticalAlign=middle;whiteSpace=wrap;rounded=0;" vertex="1" parent="1">
          <mxGeometry x="150" y="510" width="60" height="30" as="geometry" />
        </mxCell>
        <mxCell id="s3MzPOfMa5aDgj7yRu4I-31" value="0" style="text;html=1;strokeColor=none;fillColor=none;align=center;verticalAlign=middle;whiteSpace=wrap;rounded=0;" vertex="1" parent="1">
          <mxGeometry x="110" y="450" width="60" height="30" as="geometry" />
        </mxCell>
        <mxCell id="s3MzPOfMa5aDgj7yRu4I-32" value="1&lt;span style=&quot;color: rgba(0 , 0 , 0 , 0) ; font-family: monospace ; font-size: 0px&quot;&gt;%3CmxGraphModel%3E%3Croot%3E%3CmxCell%20id%3D%220%22%2F%3E%3CmxCell%20id%3D%221%22%20parent%3D%220%22%2F%3E%3CmxCell%20id%3D%222%22%20value%3D%220%22%20style%3D%22text%3Bhtml%3D1%3BstrokeColor%3Dnone%3BfillColor%3Dnone%3Balign%3Dcenter%3BverticalAlign%3Dmiddle%3BwhiteSpace%3Dwrap%3Brounded%3D0%3B%22%20vertex%3D%221%22%20parent%3D%221%22%3E%3CmxGeometry%20x%3D%22110%22%20y%3D%22290%22%20width%3D%2260%22%20height%3D%2230%22%20as%3D%22geometry%22%2F%3E%3C%2FmxCell%3E%3C%2Froot%3E%3C%2FmxGraphModel%3E&lt;/span&gt;" style="text;html=1;strokeColor=none;fillColor=none;align=center;verticalAlign=middle;whiteSpace=wrap;rounded=0;" vertex="1" parent="1">
          <mxGeometry x="110" y="485" width="60" height="30" as="geometry" />
        </mxCell>
        <mxCell id="s3MzPOfMa5aDgj7yRu4I-33" value="a&lt;sub&gt;0&lt;/sub&gt;" style="text;html=1;strokeColor=none;fillColor=none;align=center;verticalAlign=middle;whiteSpace=wrap;rounded=0;" vertex="1" parent="1">
          <mxGeometry x="110" y="525" width="60" height="30" as="geometry" />
        </mxCell>
        <mxCell id="s3MzPOfMa5aDgj7yRu4I-34" value="F&lt;sub&gt;1&lt;/sub&gt;" style="text;html=1;strokeColor=none;fillColor=none;align=center;verticalAlign=middle;whiteSpace=wrap;rounded=0;" vertex="1" parent="1">
          <mxGeometry x="205" y="465" width="30" height="30" as="geometry" />
        </mxCell>
        <mxCell id="s3MzPOfMa5aDgj7yRu4I-35" value="" style="rounded=0;whiteSpace=wrap;html=1;" vertex="1" parent="1">
          <mxGeometry x="120" y="680" width="40" height="80" as="geometry" />
        </mxCell>
        <mxCell id="s3MzPOfMa5aDgj7yRu4I-36" value="" style="rounded=0;whiteSpace=wrap;html=1;" vertex="1" parent="1">
          <mxGeometry x="120" y="760" width="40" height="40" as="geometry" />
        </mxCell>
        <mxCell id="s3MzPOfMa5aDgj7yRu4I-37" value="" style="rounded=0;whiteSpace=wrap;html=1;" vertex="1" parent="1">
          <mxGeometry x="160" y="680" width="40" height="120" as="geometry" />
        </mxCell>
        <mxCell id="s3MzPOfMa5aDgj7yRu4I-38" value="" style="rounded=0;whiteSpace=wrap;html=1;" vertex="1" parent="1">
          <mxGeometry x="200" y="680" width="40" height="120" as="geometry" />
        </mxCell>
        <mxCell id="s3MzPOfMa5aDgj7yRu4I-39" value="MS" style="text;html=1;strokeColor=none;fillColor=none;align=center;verticalAlign=middle;whiteSpace=wrap;rounded=0;" vertex="1" parent="1">
          <mxGeometry x="150" y="705" width="60" height="30" as="geometry" />
        </mxCell>
        <mxCell id="s3MzPOfMa5aDgj7yRu4I-40" value="2х1" style="text;html=1;strokeColor=none;fillColor=none;align=center;verticalAlign=middle;whiteSpace=wrap;rounded=0;" vertex="1" parent="1">
          <mxGeometry x="150" y="750" width="60" height="30" as="geometry" />
        </mxCell>
        <mxCell id="s3MzPOfMa5aDgj7yRu4I-41" value="0" style="text;html=1;strokeColor=none;fillColor=none;align=center;verticalAlign=middle;whiteSpace=wrap;rounded=0;" vertex="1" parent="1">
          <mxGeometry x="110" y="690" width="60" height="30" as="geometry" />
        </mxCell>
        <mxCell id="s3MzPOfMa5aDgj7yRu4I-42" value="1&lt;span style=&quot;color: rgba(0 , 0 , 0 , 0) ; font-family: monospace ; font-size: 0px&quot;&gt;%3CmxGraphModel%3E%3Croot%3E%3CmxCell%20id%3D%220%22%2F%3E%3CmxCell%20id%3D%221%22%20parent%3D%220%22%2F%3E%3CmxCell%20id%3D%222%22%20value%3D%220%22%20style%3D%22text%3Bhtml%3D1%3BstrokeColor%3Dnone%3BfillColor%3Dnone%3Balign%3Dcenter%3BverticalAlign%3Dmiddle%3BwhiteSpace%3Dwrap%3Brounded%3D0%3B%22%20vertex%3D%221%22%20parent%3D%221%22%3E%3CmxGeometry%20x%3D%22110%22%20y%3D%22290%22%20width%3D%2260%22%20height%3D%2230%22%20as%3D%22geometry%22%2F%3E%3C%2FmxCell%3E%3C%2Froot%3E%3C%2FmxGraphModel%3E&lt;/span&gt;" style="text;html=1;strokeColor=none;fillColor=none;align=center;verticalAlign=middle;whiteSpace=wrap;rounded=0;" vertex="1" parent="1">
          <mxGeometry x="110" y="725" width="60" height="30" as="geometry" />
        </mxCell>
        <mxCell id="s3MzPOfMa5aDgj7yRu4I-43" value="a&lt;sub&gt;0&lt;/sub&gt;" style="text;html=1;strokeColor=none;fillColor=none;align=center;verticalAlign=middle;whiteSpace=wrap;rounded=0;" vertex="1" parent="1">
          <mxGeometry x="110" y="765" width="60" height="30" as="geometry" />
        </mxCell>
        <mxCell id="s3MzPOfMa5aDgj7yRu4I-44" value="F&lt;sub&gt;2&lt;/sub&gt;" style="text;html=1;strokeColor=none;fillColor=none;align=center;verticalAlign=middle;whiteSpace=wrap;rounded=0;" vertex="1" parent="1">
          <mxGeometry x="210" y="705" width="20" height="30" as="geometry" />
        </mxCell>
        <mxCell id="s3MzPOfMa5aDgj7yRu4I-45" value="" style="rounded=0;whiteSpace=wrap;html=1;" vertex="1" parent="1">
          <mxGeometry x="120" y="880" width="40" height="80" as="geometry" />
        </mxCell>
        <mxCell id="s3MzPOfMa5aDgj7yRu4I-46" value="" style="rounded=0;whiteSpace=wrap;html=1;" vertex="1" parent="1">
          <mxGeometry x="120" y="960" width="40" height="40" as="geometry" />
        </mxCell>
        <mxCell id="s3MzPOfMa5aDgj7yRu4I-47" value="" style="rounded=0;whiteSpace=wrap;html=1;" vertex="1" parent="1">
          <mxGeometry x="160" y="880" width="40" height="120" as="geometry" />
        </mxCell>
        <mxCell id="s3MzPOfMa5aDgj7yRu4I-48" value="" style="rounded=0;whiteSpace=wrap;html=1;" vertex="1" parent="1">
          <mxGeometry x="200" y="880" width="40" height="120" as="geometry" />
        </mxCell>
        <mxCell id="s3MzPOfMa5aDgj7yRu4I-49" value="MS" style="text;html=1;strokeColor=none;fillColor=none;align=center;verticalAlign=middle;whiteSpace=wrap;rounded=0;" vertex="1" parent="1">
          <mxGeometry x="150" y="905" width="60" height="30" as="geometry" />
        </mxCell>
        <mxCell id="s3MzPOfMa5aDgj7yRu4I-50" value="2х1" style="text;html=1;strokeColor=none;fillColor=none;align=center;verticalAlign=middle;whiteSpace=wrap;rounded=0;" vertex="1" parent="1">
          <mxGeometry x="150" y="950" width="60" height="30" as="geometry" />
        </mxCell>
        <mxCell id="s3MzPOfMa5aDgj7yRu4I-51" value="0" style="text;html=1;strokeColor=none;fillColor=none;align=center;verticalAlign=middle;whiteSpace=wrap;rounded=0;" vertex="1" parent="1">
          <mxGeometry x="110" y="890" width="60" height="30" as="geometry" />
        </mxCell>
        <mxCell id="s3MzPOfMa5aDgj7yRu4I-52" value="1&lt;span style=&quot;color: rgba(0 , 0 , 0 , 0) ; font-family: monospace ; font-size: 0px&quot;&gt;%3CmxGraphModel%3E%3Croot%3E%3CmxCell%20id%3D%220%22%2F%3E%3CmxCell%20id%3D%221%22%20parent%3D%220%22%2F%3E%3CmxCell%20id%3D%222%22%20value%3D%220%22%20style%3D%22text%3Bhtml%3D1%3BstrokeColor%3Dnone%3BfillColor%3Dnone%3Balign%3Dcenter%3BverticalAlign%3Dmiddle%3BwhiteSpace%3Dwrap%3Brounded%3D0%3B%22%20vertex%3D%221%22%20parent%3D%221%22%3E%3CmxGeometry%20x%3D%22110%22%20y%3D%22290%22%20width%3D%2260%22%20height%3D%2230%22%20as%3D%22geometry%22%2F%3E%3C%2FmxCell%3E%3C%2Froot%3E%3C%2FmxGraphModel%3E&lt;/span&gt;" style="text;html=1;strokeColor=none;fillColor=none;align=center;verticalAlign=middle;whiteSpace=wrap;rounded=0;" vertex="1" parent="1">
          <mxGeometry x="110" y="925" width="60" height="30" as="geometry" />
        </mxCell>
        <mxCell id="s3MzPOfMa5aDgj7yRu4I-53" value="a&lt;sub&gt;0&lt;/sub&gt;" style="text;html=1;strokeColor=none;fillColor=none;align=center;verticalAlign=middle;whiteSpace=wrap;rounded=0;" vertex="1" parent="1">
          <mxGeometry x="110" y="965" width="60" height="30" as="geometry" />
        </mxCell>
        <mxCell id="s3MzPOfMa5aDgj7yRu4I-54" value="F&lt;sub&gt;3&lt;/sub&gt;" style="text;html=1;strokeColor=none;fillColor=none;align=center;verticalAlign=middle;whiteSpace=wrap;rounded=0;" vertex="1" parent="1">
          <mxGeometry x="205" y="905" width="30" height="30" as="geometry" />
        </mxCell>
        <mxCell id="s3MzPOfMa5aDgj7yRu4I-59" value="" style="endArrow=none;html=1;rounded=0;entryX=0;entryY=0.5;entryDx=0;entryDy=0;" edge="1" parent="1" target="s3MzPOfMa5aDgj7yRu4I-4">
          <mxGeometry width="50" height="50" relative="1" as="geometry">
            <mxPoint x="40" y="340" as="sourcePoint" />
            <mxPoint x="110" y="390" as="targetPoint" />
          </mxGeometry>
        </mxCell>
        <mxCell id="s3MzPOfMa5aDgj7yRu4I-60" value="" style="endArrow=none;html=1;rounded=0;entryX=0;entryY=0.5;entryDx=0;entryDy=0;" edge="1" parent="1">
          <mxGeometry width="50" height="50" relative="1" as="geometry">
            <mxPoint x="40" y="299.83" as="sourcePoint" />
            <mxPoint x="120" y="299.83" as="targetPoint" />
          </mxGeometry>
        </mxCell>
        <mxCell id="s3MzPOfMa5aDgj7yRu4I-61" value="" style="endArrow=none;html=1;rounded=0;entryX=0;entryY=0.5;entryDx=0;entryDy=0;" edge="1" parent="1">
          <mxGeometry width="50" height="50" relative="1" as="geometry">
            <mxPoint x="40" y="264.99999999999994" as="sourcePoint" />
            <mxPoint x="120" y="264.99999999999994" as="targetPoint" />
          </mxGeometry>
        </mxCell>
        <mxCell id="s3MzPOfMa5aDgj7yRu4I-62" value="" style="endArrow=none;html=1;rounded=0;entryX=0;entryY=0.5;entryDx=0;entryDy=0;" edge="1" parent="1">
          <mxGeometry width="50" height="50" relative="1" as="geometry">
            <mxPoint x="40" y="540" as="sourcePoint" />
            <mxPoint x="120" y="540" as="targetPoint" />
          </mxGeometry>
        </mxCell>
        <mxCell id="s3MzPOfMa5aDgj7yRu4I-63" value="" style="endArrow=none;html=1;rounded=0;entryX=0;entryY=0.5;entryDx=0;entryDy=0;" edge="1" parent="1">
          <mxGeometry width="50" height="50" relative="1" as="geometry">
            <mxPoint x="40" y="499.8299999999999" as="sourcePoint" />
            <mxPoint x="120" y="499.8299999999999" as="targetPoint" />
          </mxGeometry>
        </mxCell>
        <mxCell id="s3MzPOfMa5aDgj7yRu4I-64" value="" style="endArrow=none;html=1;rounded=0;entryX=0;entryY=0.5;entryDx=0;entryDy=0;" edge="1" parent="1">
          <mxGeometry width="50" height="50" relative="1" as="geometry">
            <mxPoint x="40" y="464.99999999999994" as="sourcePoint" />
            <mxPoint x="120" y="464.99999999999994" as="targetPoint" />
          </mxGeometry>
        </mxCell>
        <mxCell id="s3MzPOfMa5aDgj7yRu4I-65" value="" style="endArrow=none;html=1;rounded=0;entryX=0;entryY=0.5;entryDx=0;entryDy=0;" edge="1" parent="1">
          <mxGeometry width="50" height="50" relative="1" as="geometry">
            <mxPoint x="40" y="779.67" as="sourcePoint" />
            <mxPoint x="120" y="779.67" as="targetPoint" />
          </mxGeometry>
        </mxCell>
        <mxCell id="s3MzPOfMa5aDgj7yRu4I-66" value="" style="endArrow=none;html=1;rounded=0;entryX=0;entryY=0.5;entryDx=0;entryDy=0;" edge="1" parent="1">
          <mxGeometry width="50" height="50" relative="1" as="geometry">
            <mxPoint x="40" y="739.4999999999999" as="sourcePoint" />
            <mxPoint x="120" y="739.4999999999999" as="targetPoint" />
          </mxGeometry>
        </mxCell>
        <mxCell id="s3MzPOfMa5aDgj7yRu4I-67" value="" style="endArrow=none;html=1;rounded=0;entryX=0;entryY=0.5;entryDx=0;entryDy=0;" edge="1" parent="1">
          <mxGeometry width="50" height="50" relative="1" as="geometry">
            <mxPoint x="40" y="704.67" as="sourcePoint" />
            <mxPoint x="120" y="704.67" as="targetPoint" />
          </mxGeometry>
        </mxCell>
        <mxCell id="s3MzPOfMa5aDgj7yRu4I-68" value="" style="endArrow=none;html=1;rounded=0;entryX=0;entryY=0.5;entryDx=0;entryDy=0;" edge="1" parent="1">
          <mxGeometry width="50" height="50" relative="1" as="geometry">
            <mxPoint x="40" y="980" as="sourcePoint" />
            <mxPoint x="120" y="980" as="targetPoint" />
          </mxGeometry>
        </mxCell>
        <mxCell id="s3MzPOfMa5aDgj7yRu4I-69" value="" style="endArrow=none;html=1;rounded=0;entryX=0;entryY=0.5;entryDx=0;entryDy=0;" edge="1" parent="1">
          <mxGeometry width="50" height="50" relative="1" as="geometry">
            <mxPoint x="40" y="939.8299999999999" as="sourcePoint" />
            <mxPoint x="120" y="939.8299999999999" as="targetPoint" />
          </mxGeometry>
        </mxCell>
        <mxCell id="s3MzPOfMa5aDgj7yRu4I-70" value="" style="endArrow=none;html=1;rounded=0;entryX=0;entryY=0.5;entryDx=0;entryDy=0;" edge="1" parent="1">
          <mxGeometry width="50" height="50" relative="1" as="geometry">
            <mxPoint x="40" y="905" as="sourcePoint" />
            <mxPoint x="120" y="905" as="targetPoint" />
          </mxGeometry>
        </mxCell>
        <mxCell id="s3MzPOfMa5aDgj7yRu4I-71" value="a&lt;sub&gt;0&lt;/sub&gt;" style="text;html=1;strokeColor=none;fillColor=none;align=center;verticalAlign=middle;whiteSpace=wrap;rounded=0;" vertex="1" parent="1">
          <mxGeometry x="10" y="325" width="30" height="30" as="geometry" />
        </mxCell>
        <mxCell id="s3MzPOfMa5aDgj7yRu4I-72" value="a&lt;sub&gt;0&lt;/sub&gt;" style="text;html=1;strokeColor=none;fillColor=none;align=center;verticalAlign=middle;whiteSpace=wrap;rounded=0;" vertex="1" parent="1">
          <mxGeometry x="10" y="525" width="30" height="30" as="geometry" />
        </mxCell>
        <mxCell id="s3MzPOfMa5aDgj7yRu4I-73" value="a&lt;sub&gt;0&lt;/sub&gt;" style="text;html=1;strokeColor=none;fillColor=none;align=center;verticalAlign=middle;whiteSpace=wrap;rounded=0;" vertex="1" parent="1">
          <mxGeometry x="10" y="765" width="30" height="30" as="geometry" />
        </mxCell>
        <mxCell id="s3MzPOfMa5aDgj7yRu4I-76" value="a&lt;sub&gt;0&lt;/sub&gt;" style="text;html=1;strokeColor=none;fillColor=none;align=center;verticalAlign=middle;whiteSpace=wrap;rounded=0;" vertex="1" parent="1">
          <mxGeometry x="10" y="965" width="30" height="30" as="geometry" />
        </mxCell>
        <mxCell id="s3MzPOfMa5aDgj7yRu4I-78" value="x&lt;sub&gt;0&lt;/sub&gt;" style="text;html=1;strokeColor=none;fillColor=none;align=center;verticalAlign=middle;whiteSpace=wrap;rounded=0;" vertex="1" parent="1">
          <mxGeometry x="10" y="250" width="30" height="30" as="geometry" />
        </mxCell>
        <mxCell id="s3MzPOfMa5aDgj7yRu4I-79" value="x&lt;span style=&quot;font-size: 10px&quot;&gt;&lt;sub&gt;1&lt;/sub&gt;&lt;/span&gt;" style="text;html=1;strokeColor=none;fillColor=none;align=center;verticalAlign=middle;whiteSpace=wrap;rounded=0;" vertex="1" parent="1">
          <mxGeometry x="10" y="285" width="30" height="30" as="geometry" />
        </mxCell>
        <mxCell id="s3MzPOfMa5aDgj7yRu4I-80" value="x&lt;sub&gt;2&lt;/sub&gt;" style="text;html=1;strokeColor=none;fillColor=none;align=center;verticalAlign=middle;whiteSpace=wrap;rounded=0;" vertex="1" parent="1">
          <mxGeometry x="10" y="450" width="30" height="30" as="geometry" />
        </mxCell>
        <mxCell id="s3MzPOfMa5aDgj7yRu4I-81" value="x&lt;sub&gt;3&lt;/sub&gt;" style="text;html=1;strokeColor=none;fillColor=none;align=center;verticalAlign=middle;whiteSpace=wrap;rounded=0;" vertex="1" parent="1">
          <mxGeometry x="10" y="485" width="30" height="30" as="geometry" />
        </mxCell>
        <mxCell id="s3MzPOfMa5aDgj7yRu4I-82" value="x&lt;sub&gt;4&lt;/sub&gt;" style="text;html=1;strokeColor=none;fillColor=none;align=center;verticalAlign=middle;whiteSpace=wrap;rounded=0;" vertex="1" parent="1">
          <mxGeometry x="10" y="690" width="30" height="30" as="geometry" />
        </mxCell>
        <mxCell id="s3MzPOfMa5aDgj7yRu4I-83" value="x&lt;sub&gt;5&lt;/sub&gt;" style="text;html=1;strokeColor=none;fillColor=none;align=center;verticalAlign=middle;whiteSpace=wrap;rounded=0;" vertex="1" parent="1">
          <mxGeometry x="10" y="725" width="30" height="30" as="geometry" />
        </mxCell>
        <mxCell id="s3MzPOfMa5aDgj7yRu4I-84" value="x&lt;sub&gt;6&lt;/sub&gt;" style="text;html=1;strokeColor=none;fillColor=none;align=center;verticalAlign=middle;whiteSpace=wrap;rounded=0;" vertex="1" parent="1">
          <mxGeometry x="10" y="890" width="30" height="30" as="geometry" />
        </mxCell>
        <mxCell id="s3MzPOfMa5aDgj7yRu4I-85" value="x&lt;sub&gt;7&lt;/sub&gt;" style="text;html=1;strokeColor=none;fillColor=none;align=center;verticalAlign=middle;whiteSpace=wrap;rounded=0;" vertex="1" parent="1">
          <mxGeometry x="10" y="925" width="30" height="30" as="geometry" />
        </mxCell>
        <mxCell id="s3MzPOfMa5aDgj7yRu4I-86" value="&amp;amp;" style="rounded=0;whiteSpace=wrap;html=1;" vertex="1" parent="1">
          <mxGeometry x="480" y="560" width="40" height="40" as="geometry" />
        </mxCell>
        <mxCell id="s3MzPOfMa5aDgj7yRu4I-87" value="&amp;amp;" style="rounded=0;whiteSpace=wrap;html=1;" vertex="1" parent="1">
          <mxGeometry x="480" y="640" width="40" height="40" as="geometry" />
        </mxCell>
        <mxCell id="s3MzPOfMa5aDgj7yRu4I-88" value="1" style="rounded=0;whiteSpace=wrap;html=1;" vertex="1" parent="1">
          <mxGeometry x="600" y="600" width="40" height="40" as="geometry" />
        </mxCell>
        <mxCell id="s3MzPOfMa5aDgj7yRu4I-89" value="" style="endArrow=none;html=1;rounded=0;exitX=1;exitY=0.5;exitDx=0;exitDy=0;entryX=0;entryY=0.75;entryDx=0;entryDy=0;" edge="1" parent="1" source="s3MzPOfMa5aDgj7yRu4I-87" target="s3MzPOfMa5aDgj7yRu4I-88">
          <mxGeometry width="50" height="50" relative="1" as="geometry">
            <mxPoint x="530" y="600" as="sourcePoint" />
            <mxPoint x="580" y="550" as="targetPoint" />
            <Array as="points">
              <mxPoint x="560" y="660" />
              <mxPoint x="560" y="640" />
              <mxPoint x="560" y="630" />
            </Array>
          </mxGeometry>
        </mxCell>
        <mxCell id="s3MzPOfMa5aDgj7yRu4I-90" value="" style="endArrow=none;html=1;rounded=0;exitX=1;exitY=0.5;exitDx=0;exitDy=0;entryX=0;entryY=0.25;entryDx=0;entryDy=0;" edge="1" parent="1" source="s3MzPOfMa5aDgj7yRu4I-86" target="s3MzPOfMa5aDgj7yRu4I-88">
          <mxGeometry width="50" height="50" relative="1" as="geometry">
            <mxPoint x="540" y="610" as="sourcePoint" />
            <mxPoint x="590" y="560" as="targetPoint" />
            <Array as="points">
              <mxPoint x="560" y="580" />
              <mxPoint x="560" y="610" />
            </Array>
          </mxGeometry>
        </mxCell>
        <mxCell id="s3MzPOfMa5aDgj7yRu4I-92" value="" style="endArrow=none;html=1;rounded=0;entryX=1;entryY=0.5;entryDx=0;entryDy=0;" edge="1" parent="1" target="s3MzPOfMa5aDgj7yRu4I-88">
          <mxGeometry width="50" height="50" relative="1" as="geometry">
            <mxPoint x="700" y="620" as="sourcePoint" />
            <mxPoint x="590" y="560" as="targetPoint" />
          </mxGeometry>
        </mxCell>
        <mxCell id="s3MzPOfMa5aDgj7yRu4I-93" value="1" style="rounded=0;whiteSpace=wrap;html=1;" vertex="1" parent="1">
          <mxGeometry x="160" y="580" width="40" height="40" as="geometry" />
        </mxCell>
        <mxCell id="s3MzPOfMa5aDgj7yRu4I-94" value="a&lt;sub&gt;2&lt;/sub&gt;" style="text;html=1;strokeColor=none;fillColor=none;align=center;verticalAlign=middle;whiteSpace=wrap;rounded=0;" vertex="1" parent="1">
          <mxGeometry x="10" y="605" width="30" height="30" as="geometry" />
        </mxCell>
        <mxCell id="s3MzPOfMa5aDgj7yRu4I-95" value="" style="endArrow=none;html=1;rounded=0;exitX=1;exitY=0.5;exitDx=0;exitDy=0;" edge="1" parent="1" source="s3MzPOfMa5aDgj7yRu4I-94">
          <mxGeometry width="50" height="50" relative="1" as="geometry">
            <mxPoint x="180" y="710" as="sourcePoint" />
            <mxPoint x="120" y="620" as="targetPoint" />
          </mxGeometry>
        </mxCell>
        <mxCell id="s3MzPOfMa5aDgj7yRu4I-96" value="" style="endArrow=none;html=1;rounded=0;entryX=0;entryY=0.25;entryDx=0;entryDy=0;" edge="1" parent="1" target="s3MzPOfMa5aDgj7yRu4I-87">
          <mxGeometry width="50" height="50" relative="1" as="geometry">
            <mxPoint x="120" y="620" as="sourcePoint" />
            <mxPoint x="230" y="660" as="targetPoint" />
            <Array as="points">
              <mxPoint x="120" y="650" />
            </Array>
          </mxGeometry>
        </mxCell>
        <mxCell id="s3MzPOfMa5aDgj7yRu4I-97" value="" style="endArrow=none;html=1;rounded=0;entryX=0;entryY=0.5;entryDx=0;entryDy=0;" edge="1" parent="1" target="s3MzPOfMa5aDgj7yRu4I-93">
          <mxGeometry width="50" height="50" relative="1" as="geometry">
            <mxPoint x="120" y="620" as="sourcePoint" />
            <mxPoint x="230" y="660" as="targetPoint" />
            <Array as="points">
              <mxPoint x="120" y="600" />
            </Array>
          </mxGeometry>
        </mxCell>
        <mxCell id="s3MzPOfMa5aDgj7yRu4I-98" value="&amp;amp;" style="rounded=0;whiteSpace=wrap;html=1;" vertex="1" parent="1">
          <mxGeometry x="304" y="335" width="40" height="40" as="geometry" />
        </mxCell>
        <mxCell id="s3MzPOfMa5aDgj7yRu4I-99" value="&amp;amp;" style="rounded=0;whiteSpace=wrap;html=1;" vertex="1" parent="1">
          <mxGeometry x="304" y="415" width="40" height="40" as="geometry" />
        </mxCell>
        <mxCell id="s3MzPOfMa5aDgj7yRu4I-100" value="1" style="rounded=0;whiteSpace=wrap;html=1;" vertex="1" parent="1">
          <mxGeometry x="384" y="375" width="40" height="40" as="geometry" />
        </mxCell>
        <mxCell id="s3MzPOfMa5aDgj7yRu4I-101" value="" style="endArrow=none;html=1;rounded=0;exitX=1;exitY=0.5;exitDx=0;exitDy=0;entryX=0;entryY=0.75;entryDx=0;entryDy=0;" edge="1" parent="1" source="s3MzPOfMa5aDgj7yRu4I-99" target="s3MzPOfMa5aDgj7yRu4I-100">
          <mxGeometry width="50" height="50" relative="1" as="geometry">
            <mxPoint x="354" y="375" as="sourcePoint" />
            <mxPoint x="404" y="325" as="targetPoint" />
            <Array as="points">
              <mxPoint x="364" y="435" />
              <mxPoint x="364" y="405" />
              <mxPoint x="384" y="405" />
            </Array>
          </mxGeometry>
        </mxCell>
        <mxCell id="s3MzPOfMa5aDgj7yRu4I-102" value="" style="endArrow=none;html=1;rounded=0;exitX=1;exitY=0.5;exitDx=0;exitDy=0;entryX=0;entryY=0.25;entryDx=0;entryDy=0;" edge="1" parent="1" source="s3MzPOfMa5aDgj7yRu4I-98" target="s3MzPOfMa5aDgj7yRu4I-100">
          <mxGeometry width="50" height="50" relative="1" as="geometry">
            <mxPoint x="364" y="385" as="sourcePoint" />
            <mxPoint x="414" y="335" as="targetPoint" />
            <Array as="points">
              <mxPoint x="364" y="355" />
              <mxPoint x="364" y="385" />
              <mxPoint x="384" y="385" />
            </Array>
          </mxGeometry>
        </mxCell>
        <mxCell id="s3MzPOfMa5aDgj7yRu4I-103" value="" style="endArrow=none;html=1;rounded=0;entryX=1;entryY=0.5;entryDx=0;entryDy=0;exitX=0;exitY=0.25;exitDx=0;exitDy=0;" edge="1" parent="1" target="s3MzPOfMa5aDgj7yRu4I-100" source="s3MzPOfMa5aDgj7yRu4I-86">
          <mxGeometry width="50" height="50" relative="1" as="geometry">
            <mxPoint x="520" y="395" as="sourcePoint" />
            <mxPoint x="410" y="335" as="targetPoint" />
            <Array as="points">
              <mxPoint x="440" y="570" />
              <mxPoint x="440" y="395" />
            </Array>
          </mxGeometry>
        </mxCell>
        <mxCell id="s3MzPOfMa5aDgj7yRu4I-104" value="" style="ellipse;whiteSpace=wrap;html=1;aspect=fixed;" vertex="1" parent="1">
          <mxGeometry x="200" y="595" width="10" height="10" as="geometry" />
        </mxCell>
        <mxCell id="s3MzPOfMa5aDgj7yRu4I-105" value="1" style="rounded=0;whiteSpace=wrap;html=1;" vertex="1" parent="1">
          <mxGeometry x="170" y="377.5" width="20" height="25" as="geometry" />
        </mxCell>
        <mxCell id="s3MzPOfMa5aDgj7yRu4I-106" value="" style="ellipse;whiteSpace=wrap;html=1;aspect=fixed;" vertex="1" parent="1">
          <mxGeometry x="190" y="386.25" width="7.5" height="7.5" as="geometry" />
        </mxCell>
        <mxCell id="s3MzPOfMa5aDgj7yRu4I-109" value="&amp;amp;" style="rounded=0;whiteSpace=wrap;html=1;" vertex="1" parent="1">
          <mxGeometry x="304" y="780" width="40" height="40" as="geometry" />
        </mxCell>
        <mxCell id="s3MzPOfMa5aDgj7yRu4I-110" value="&amp;amp;" style="rounded=0;whiteSpace=wrap;html=1;" vertex="1" parent="1">
          <mxGeometry x="304" y="860" width="40" height="40" as="geometry" />
        </mxCell>
        <mxCell id="s3MzPOfMa5aDgj7yRu4I-111" value="1" style="rounded=0;whiteSpace=wrap;html=1;" vertex="1" parent="1">
          <mxGeometry x="384" y="820" width="40" height="40" as="geometry" />
        </mxCell>
        <mxCell id="s3MzPOfMa5aDgj7yRu4I-112" value="" style="endArrow=none;html=1;rounded=0;exitX=1;exitY=0.5;exitDx=0;exitDy=0;entryX=0;entryY=0.75;entryDx=0;entryDy=0;" edge="1" parent="1" source="s3MzPOfMa5aDgj7yRu4I-110" target="s3MzPOfMa5aDgj7yRu4I-111">
          <mxGeometry width="50" height="50" relative="1" as="geometry">
            <mxPoint x="354" y="820" as="sourcePoint" />
            <mxPoint x="404" y="770" as="targetPoint" />
            <Array as="points">
              <mxPoint x="364" y="880" />
              <mxPoint x="364" y="850" />
              <mxPoint x="384" y="850" />
            </Array>
          </mxGeometry>
        </mxCell>
        <mxCell id="s3MzPOfMa5aDgj7yRu4I-113" value="" style="endArrow=none;html=1;rounded=0;exitX=1;exitY=0.5;exitDx=0;exitDy=0;entryX=0;entryY=0.25;entryDx=0;entryDy=0;" edge="1" parent="1" source="s3MzPOfMa5aDgj7yRu4I-109" target="s3MzPOfMa5aDgj7yRu4I-111">
          <mxGeometry width="50" height="50" relative="1" as="geometry">
            <mxPoint x="364" y="830" as="sourcePoint" />
            <mxPoint x="414" y="780" as="targetPoint" />
            <Array as="points">
              <mxPoint x="364" y="800" />
              <mxPoint x="364" y="830" />
              <mxPoint x="384" y="830" />
            </Array>
          </mxGeometry>
        </mxCell>
        <mxCell id="s3MzPOfMa5aDgj7yRu4I-114" value="" style="endArrow=none;html=1;rounded=0;entryX=1;entryY=0.5;entryDx=0;entryDy=0;exitX=0;exitY=0.75;exitDx=0;exitDy=0;" edge="1" parent="1" target="s3MzPOfMa5aDgj7yRu4I-111" source="s3MzPOfMa5aDgj7yRu4I-87">
          <mxGeometry width="50" height="50" relative="1" as="geometry">
            <mxPoint x="524" y="840" as="sourcePoint" />
            <mxPoint x="414" y="780" as="targetPoint" />
            <Array as="points">
              <mxPoint x="440" y="670" />
              <mxPoint x="440" y="840" />
            </Array>
          </mxGeometry>
        </mxCell>
        <mxCell id="s3MzPOfMa5aDgj7yRu4I-115" value="" style="endArrow=none;html=1;rounded=0;exitX=1;exitY=0.5;exitDx=0;exitDy=0;entryX=0;entryY=0.75;entryDx=0;entryDy=0;" edge="1" parent="1" source="s3MzPOfMa5aDgj7yRu4I-104" target="s3MzPOfMa5aDgj7yRu4I-86">
          <mxGeometry width="50" height="50" relative="1" as="geometry">
            <mxPoint x="350" y="640" as="sourcePoint" />
            <mxPoint x="420" y="590" as="targetPoint" />
            <Array as="points">
              <mxPoint x="360" y="600" />
              <mxPoint x="360" y="590" />
            </Array>
          </mxGeometry>
        </mxCell>
        <mxCell id="s3MzPOfMa5aDgj7yRu4I-119" value="" style="endArrow=none;html=1;rounded=0;" edge="1" parent="1">
          <mxGeometry width="50" height="50" relative="1" as="geometry">
            <mxPoint x="40" y="400" as="sourcePoint" />
            <mxPoint x="120" y="400" as="targetPoint" />
          </mxGeometry>
        </mxCell>
        <mxCell id="s3MzPOfMa5aDgj7yRu4I-127" value="" style="endArrow=none;html=1;rounded=0;entryX=0;entryY=0.25;entryDx=0;entryDy=0;exitX=0.995;exitY=0.334;exitDx=0;exitDy=0;exitPerimeter=0;" edge="1" parent="1" source="s3MzPOfMa5aDgj7yRu4I-38" target="s3MzPOfMa5aDgj7yRu4I-109">
          <mxGeometry width="50" height="50" relative="1" as="geometry">
            <mxPoint x="270" y="740" as="sourcePoint" />
            <mxPoint x="190" y="790" as="targetPoint" />
            <Array as="points">
              <mxPoint x="260" y="720" />
              <mxPoint x="260" y="790" />
            </Array>
          </mxGeometry>
        </mxCell>
        <mxCell id="s3MzPOfMa5aDgj7yRu4I-129" value="" style="endArrow=none;html=1;rounded=0;entryX=0;entryY=0.75;entryDx=0;entryDy=0;exitX=1;exitY=0.25;exitDx=0;exitDy=0;" edge="1" parent="1" source="s3MzPOfMa5aDgj7yRu4I-48" target="s3MzPOfMa5aDgj7yRu4I-110">
          <mxGeometry width="50" height="50" relative="1" as="geometry">
            <mxPoint x="220" y="930" as="sourcePoint" />
            <mxPoint x="270" y="880" as="targetPoint" />
            <Array as="points">
              <mxPoint x="280" y="910" />
              <mxPoint x="280" y="890" />
            </Array>
          </mxGeometry>
        </mxCell>
        <mxCell id="s3MzPOfMa5aDgj7yRu4I-131" value="a&lt;sub&gt;1&lt;/sub&gt;" style="text;html=1;strokeColor=none;fillColor=none;align=center;verticalAlign=middle;whiteSpace=wrap;rounded=0;" vertex="1" parent="1">
          <mxGeometry x="10" y="375" width="30" height="30" as="geometry" />
        </mxCell>
        <mxCell id="s3MzPOfMa5aDgj7yRu4I-134" value="" style="endArrow=none;html=1;rounded=0;exitX=1;exitY=0.5;exitDx=0;exitDy=0;entryX=0;entryY=0.75;entryDx=0;entryDy=0;" edge="1" parent="1" source="s3MzPOfMa5aDgj7yRu4I-106" target="s3MzPOfMa5aDgj7yRu4I-98">
          <mxGeometry width="50" height="50" relative="1" as="geometry">
            <mxPoint x="230" y="370" as="sourcePoint" />
            <mxPoint x="280" y="320" as="targetPoint" />
            <Array as="points">
              <mxPoint x="280" y="390" />
              <mxPoint x="280" y="365" />
            </Array>
          </mxGeometry>
        </mxCell>
        <mxCell id="s3MzPOfMa5aDgj7yRu4I-135" value="" style="endArrow=none;html=1;rounded=0;entryX=1;entryY=0.25;entryDx=0;entryDy=0;exitX=0;exitY=0.25;exitDx=0;exitDy=0;" edge="1" parent="1" source="s3MzPOfMa5aDgj7yRu4I-98" target="s3MzPOfMa5aDgj7yRu4I-6">
          <mxGeometry width="50" height="50" relative="1" as="geometry">
            <mxPoint x="210" y="320" as="sourcePoint" />
            <mxPoint x="260" y="270" as="targetPoint" />
            <Array as="points">
              <mxPoint x="280" y="345" />
              <mxPoint x="280" y="270" />
            </Array>
          </mxGeometry>
        </mxCell>
        <mxCell id="s3MzPOfMa5aDgj7yRu4I-136" value="" style="endArrow=none;html=1;rounded=0;entryX=-0.002;entryY=0.222;entryDx=0;entryDy=0;entryPerimeter=0;" edge="1" parent="1" target="s3MzPOfMa5aDgj7yRu4I-99">
          <mxGeometry width="50" height="50" relative="1" as="geometry">
            <mxPoint x="120" y="400" as="sourcePoint" />
            <mxPoint x="180" y="380" as="targetPoint" />
            <Array as="points">
              <mxPoint x="120" y="424" />
              <mxPoint x="280" y="424" />
            </Array>
          </mxGeometry>
        </mxCell>
        <mxCell id="s3MzPOfMa5aDgj7yRu4I-137" value="" style="endArrow=none;html=1;rounded=0;entryX=0;entryY=0.5;entryDx=0;entryDy=0;" edge="1" parent="1" target="s3MzPOfMa5aDgj7yRu4I-105">
          <mxGeometry width="50" height="50" relative="1" as="geometry">
            <mxPoint x="120" y="400" as="sourcePoint" />
            <mxPoint x="160" y="386" as="targetPoint" />
            <Array as="points">
              <mxPoint x="120" y="390" />
            </Array>
          </mxGeometry>
        </mxCell>
        <mxCell id="s3MzPOfMa5aDgj7yRu4I-138" value="" style="endArrow=none;html=1;rounded=0;exitX=1;exitY=0.25;exitDx=0;exitDy=0;entryX=0;entryY=0.75;entryDx=0;entryDy=0;" edge="1" parent="1" source="s3MzPOfMa5aDgj7yRu4I-28" target="s3MzPOfMa5aDgj7yRu4I-99">
          <mxGeometry width="50" height="50" relative="1" as="geometry">
            <mxPoint x="280" y="470" as="sourcePoint" />
            <mxPoint x="220" y="390" as="targetPoint" />
            <Array as="points">
              <mxPoint x="280" y="470" />
              <mxPoint x="280" y="445" />
            </Array>
          </mxGeometry>
        </mxCell>
        <mxCell id="s3MzPOfMa5aDgj7yRu4I-139" value="1" style="rounded=0;whiteSpace=wrap;html=1;" vertex="1" parent="1">
          <mxGeometry x="170" y="812.5" width="20" height="25" as="geometry" />
        </mxCell>
        <mxCell id="s3MzPOfMa5aDgj7yRu4I-140" value="" style="ellipse;whiteSpace=wrap;html=1;aspect=fixed;" vertex="1" parent="1">
          <mxGeometry x="190" y="821.25" width="7.5" height="7.5" as="geometry" />
        </mxCell>
        <mxCell id="s3MzPOfMa5aDgj7yRu4I-142" value="a&lt;sub&gt;1&lt;/sub&gt;" style="text;html=1;strokeColor=none;fillColor=none;align=center;verticalAlign=middle;whiteSpace=wrap;rounded=0;" vertex="1" parent="1">
          <mxGeometry y="820" width="30" height="30" as="geometry" />
        </mxCell>
        <mxCell id="s3MzPOfMa5aDgj7yRu4I-143" value="" style="endArrow=none;html=1;rounded=0;entryX=0;entryY=0.5;entryDx=0;entryDy=0;" edge="1" parent="1" target="s3MzPOfMa5aDgj7yRu4I-139">
          <mxGeometry width="50" height="50" relative="1" as="geometry">
            <mxPoint x="120" y="840" as="sourcePoint" />
            <mxPoint x="160" y="821" as="targetPoint" />
            <Array as="points">
              <mxPoint x="120" y="825" />
            </Array>
          </mxGeometry>
        </mxCell>
        <mxCell id="s3MzPOfMa5aDgj7yRu4I-144" value="" style="endArrow=none;html=1;rounded=0;entryX=0;entryY=0.75;entryDx=0;entryDy=0;exitX=1;exitY=0.5;exitDx=0;exitDy=0;" edge="1" parent="1" source="s3MzPOfMa5aDgj7yRu4I-140" target="s3MzPOfMa5aDgj7yRu4I-109">
          <mxGeometry width="50" height="50" relative="1" as="geometry">
            <mxPoint x="150" y="880" as="sourcePoint" />
            <mxPoint x="200" y="830" as="targetPoint" />
            <Array as="points">
              <mxPoint x="260" y="825" />
              <mxPoint x="260" y="810" />
            </Array>
          </mxGeometry>
        </mxCell>
        <mxCell id="s3MzPOfMa5aDgj7yRu4I-145" value="" style="endArrow=none;html=1;rounded=0;entryX=0;entryY=0.25;entryDx=0;entryDy=0;" edge="1" parent="1" target="s3MzPOfMa5aDgj7yRu4I-110">
          <mxGeometry width="50" height="50" relative="1" as="geometry">
            <mxPoint x="120" y="840" as="sourcePoint" />
            <mxPoint x="190" y="800" as="targetPoint" />
            <Array as="points">
              <mxPoint x="120" y="870" />
            </Array>
          </mxGeometry>
        </mxCell>
        <mxCell id="s3MzPOfMa5aDgj7yRu4I-146" value="" style="endArrow=none;html=1;rounded=0;" edge="1" parent="1">
          <mxGeometry width="50" height="50" relative="1" as="geometry">
            <mxPoint x="40" y="840" as="sourcePoint" />
            <mxPoint x="120" y="840" as="targetPoint" />
          </mxGeometry>
        </mxCell>
        <mxCell id="s3MzPOfMa5aDgj7yRu4I-147" value="F" style="text;html=1;strokeColor=none;fillColor=none;align=center;verticalAlign=middle;whiteSpace=wrap;rounded=0;" vertex="1" parent="1">
          <mxGeometry x="700" y="605" width="30" height="30" as="geometry" />
        </mxCell>
      </root>
    </mxGraphModel>
  </diagram>
</mxfile>
